<svg width="492" height="557" viewBox="0 0 492 557" fill="none" xmlns="http://www.w3.org/2000/svg">
<path d="M121.496 253.048C121.496 184.563 177.015 129.044 245.5 129.044C313.985 129.044 369.502 184.562 369.502 253.048C369.502 280.347 360.673 305.581 345.726 326.063C328.026 352.736 282.035 382.85 282.035 400.892V421.504C282.035 425.619 278.699 428.953 274.586 428.953H254.657H236.344H216.416C212.302 428.953 208.967 425.617 208.967 421.504V400.892C208.967 382.85 162.974 352.736 145.275 326.063C130.326 305.581 121.496 280.347 121.496 253.048Z" fill="#FDD305"/>
<path d="M259.581 426.898C259.436 423.79 257.216 374.013 261.201 330.388C256.316 330.967 251.087 331.274 245.499 331.274C239.909 331.274 234.681 330.967 229.797 330.388C233.783 374.013 231.562 423.79 231.418 426.898L229.231 426.796C229.267 426.029 231.566 374.543 227.492 330.092C190.714 324.978 174.252 304.143 171.295 284.479C169.567 272.987 173.493 261.548 180.628 257.282C184.957 254.693 190.188 254.168 195.755 255.766C204.513 258.279 212.837 265.826 218.022 275.954C224.008 287.652 227.547 307.073 229.588 328.158C234.521 328.763 239.818 329.087 245.5 329.087C251.182 329.087 256.479 328.763 261.41 328.158C263.451 307.073 266.99 287.652 272.978 275.954C278.162 265.826 286.487 258.279 295.245 255.766C300.811 254.17 306.044 254.693 310.372 257.282C317.507 261.548 321.431 272.987 319.703 284.479C316.747 304.143 300.284 324.978 263.506 330.092C259.432 374.543 261.732 426.031 261.767 426.796L259.581 426.898ZM301.38 257.052C299.605 257.052 297.751 257.324 295.849 257.869C287.661 260.218 279.841 267.35 274.926 276.951C269.17 288.201 265.728 307.147 263.719 327.848C298.95 322.769 314.72 302.906 317.539 284.152C319.114 273.672 315.55 262.928 309.248 259.158C306.906 257.758 304.243 257.052 301.38 257.052ZM189.62 257.052C186.757 257.052 184.094 257.758 181.752 259.159C175.45 262.928 171.885 273.673 173.461 284.154C176.28 302.907 192.048 322.77 227.28 327.849C225.27 307.147 221.83 288.201 216.072 276.952C211.159 267.353 203.337 260.219 195.15 257.87C193.249 257.323 191.396 257.052 189.62 257.052Z" fill="white"/>
<path d="M348.858 260.164C344.93 260.164 341.744 256.978 341.744 253.05C341.744 208.927 311.913 170.558 269.201 159.745C265.391 158.781 263.085 154.911 264.05 151.101C265.015 147.292 268.883 144.982 272.694 145.95C321.728 158.364 355.975 202.404 355.975 253.05C355.972 256.978 352.786 260.164 348.858 260.164Z" fill="#FFEE99"/>
<path d="M243.111 149.494C243.111 153.423 246.297 156.608 250.225 156.608C254.155 156.608 257.339 153.423 257.339 149.494C257.339 145.564 254.154 142.379 250.225 142.379C246.297 142.38 243.111 145.564 243.111 149.494Z" fill="#FFEE99"/>
<g opacity="0.55">
<path d="M369.264 260.379C362.421 311.226 321.369 363.866 245.5 363.866C169.631 363.866 130.112 308.763 121.736 260.379C123.165 284.856 131.676 307.429 145.274 326.063C162.974 352.736 208.965 382.85 208.965 400.892V421.504C208.965 425.619 212.301 428.953 216.414 428.953H236.343H254.656H274.584C278.699 428.953 282.033 425.617 282.033 421.504V400.892C282.033 382.85 328.024 352.736 345.725 326.063C359.326 307.429 367.835 284.856 369.264 260.379Z" fill="#FFC043"/>
</g>
<path d="M284.964 409.693H206.034V447.31C206.034 453.452 207.782 459.469 211.075 464.656C217.298 474.458 228.102 480.398 239.714 480.398H251.285C262.896 480.398 273.701 474.458 279.925 464.656C283.217 459.469 284.964 453.453 284.964 447.31V409.693Z" fill="#28364C"/>
<path d="M206.029 435.061C206.254 435.07 206.482 435.061 206.712 435.037L285.642 426.855C288.336 426.576 290.217 424.153 289.845 421.446C289.471 418.739 286.979 416.767 284.291 417.05L205.361 425.233C202.668 425.512 200.786 427.934 201.159 430.642C201.497 433.117 203.609 434.976 206.029 435.061Z" fill="#475577"/>
<path d="M206.029 452.277C206.254 452.286 206.482 452.277 206.712 452.253L285.642 444.071C288.336 443.792 290.217 441.371 289.845 438.662C289.471 435.955 286.979 433.988 284.291 434.267L205.361 442.449C202.668 442.728 200.786 445.149 201.159 447.858C201.497 450.334 203.609 452.192 206.029 452.277Z" fill="#475577"/>
<path d="M209.182 469.319C209.407 469.326 209.635 469.319 209.865 469.295L284.68 461.538C287.374 461.259 289.255 458.838 288.883 456.129C288.509 453.422 286.014 451.451 283.328 451.734L208.512 459.49C205.818 459.769 203.936 462.191 204.311 464.899C204.65 467.376 206.762 469.235 209.182 469.319Z" fill="#475577"/>
<path d="M245.5 76.4019V115.369" stroke="#FFC043" stroke-width="4.24544" stroke-miterlimit="10" stroke-linecap="round" stroke-linejoin="round"/>
<path d="M315.772 91.9229L300.034 127.57" stroke="#FFC043" stroke-width="4.24544" stroke-miterlimit="10" stroke-linecap="round" stroke-linejoin="round"/>
<path d="M375 135.037L346.206 161.292" stroke="#FFC043" stroke-width="4.24544" stroke-miterlimit="10" stroke-linecap="round" stroke-linejoin="round"/>
<path d="M175.228 91.9229L190.966 127.57" stroke="#FFC043" stroke-width="4.24544" stroke-miterlimit="10" stroke-linecap="round" stroke-linejoin="round"/>
<path d="M116 135.037L144.794 161.292" stroke="#FFC043" stroke-width="4.24544" stroke-miterlimit="10" stroke-linecap="round" stroke-linejoin="round"/>
</svg>
