<svg width="500" height="500" viewBox="0 0 500 500" fill="none" xmlns="http://www.w3.org/2000/svg">
  <!-- Background Circle -->
  <circle cx="250" cy="250" r="200" fill="#1a357d" opacity="0.1"/>
  
  <!-- Shield Shape -->
  <path d="M250 80 C200 80, 160 100, 160 140 L160 240 C160 320, 200 380, 250 420 C300 380, 340 320, 340 240 L340 140 C340 100, 300 80, 250 80 Z" fill="#1a357d" stroke="#ffffff" stroke-width="4"/>
  
  <!-- Inner Shield Highlight -->
  <path d="M250 100 C210 100, 180 115, 180 150 L180 230 C180 300, 210 350, 250 380 C290 350, 320 300, 320 230 L320 150 C320 115, 290 100, 250 100 Z" fill="#2563eb" opacity="0.8"/>
  
  <!-- Checkmark -->
  <path d="M200 220 L230 250 L300 180" stroke="#ffffff" stroke-width="12" stroke-linecap="round" stroke-linejoin="round" fill="none"/>
  
  <!-- Decorative Elements -->
  <circle cx="200" cy="160" r="4" fill="#ffffff" opacity="0.6"/>
  <circle cx="300" cy="160" r="4" fill="#ffffff" opacity="0.6"/>
  <circle cx="250" cy="140" r="6" fill="#ffffff" opacity="0.8"/>
  
  <!-- Bottom Accent -->
  <path d="M220 350 Q250 370, 280 350" stroke="#ffffff" stroke-width="3" stroke-linecap="round" fill="none" opacity="0.7"/>
</svg>