<svg width="492" height="557" viewBox="0 0 492 557" fill="none" xmlns="http://www.w3.org/2000/svg">
<path d="M413.7 144.05C411.725 141.639 363.97 85 246 85C128.03 85 80.2749 141.639 78.2998 144.05C76.1659 146.654 75 149.918 75 153.284V236.427C75.001 283.761 83.7243 325.584 100.928 360.736C114.884 389.252 134.364 413.381 158.829 432.453C200.487 464.926 242.12 471.374 243.872 471.633C244.577 471.737 245.289 471.789 246 471.789C246.711 471.789 247.423 471.737 248.128 471.633C249.88 471.374 291.513 464.926 333.171 432.453C357.636 413.381 377.116 389.252 391.072 360.736C408.275 325.585 416.999 283.761 417 236.421V153.284C417 149.918 415.834 146.654 413.7 144.05ZM387.856 236.426C387.855 278.906 380.263 316.145 365.293 347.108C353.472 371.555 336.992 392.257 316.309 408.637C285.567 432.984 254.236 440.706 245.971 442.405C237.757 440.75 207.363 433.333 176.747 409.467C155.801 393.139 139.099 372.434 127.105 347.926C111.87 316.796 104.145 279.283 104.144 236.421V159.158C108.849 154.697 118.6 146.527 134.096 138.432C172.524 118.358 216.16 114.144 246 114.144C300.061 114.144 336.693 127.352 357.903 138.432C373.399 146.528 383.15 154.697 387.855 159.158L387.856 236.426Z" fill="url(#paint0_linear_3018_123)"/>
<path d="M246 128.717C195.485 128.717 161.445 140.759 141.783 150.862C131.24 156.279 123.646 161.705 118.716 165.743V236.426C118.717 276.469 125.742 311.415 139.597 340.289C150.354 362.708 165.337 381.698 184.131 396.731C209.406 416.95 234.96 424.822 246 427.467C257.039 424.822 282.593 416.95 307.869 396.731C326.662 381.698 341.646 362.708 352.402 340.289C366.257 311.414 373.282 276.468 373.283 236.421V165.743C368.353 161.705 360.759 156.279 350.216 150.862C330.556 140.759 296.515 128.717 246 128.717Z" fill="url(#paint1_linear_3018_123)"/>
<path d="M222.87 336.659C220.56 336.659 218.333 335.743 216.689 334.098L180.164 297.573C176.749 294.159 176.749 288.623 180.164 285.209C183.578 281.794 189.114 281.794 192.529 285.209L221.989 314.669L298.706 214.269C301.639 210.432 307.126 209.699 310.962 212.63C314.799 215.562 315.533 221.049 312.601 224.886L229.818 333.225C228.288 335.228 225.967 336.473 223.452 336.64C223.257 336.652 223.064 336.659 222.87 336.659Z" fill="white"/>
<defs>
<linearGradient id="paint0_linear_3018_123" x1="41.9757" y1="144.647" x2="442.315" y2="375.924" gradientUnits="userSpaceOnUse">
<stop offset="0.0011" stop-color="#C86FD6"/>
<stop offset="1" stop-color="#4C5AD9"/>
</linearGradient>
<linearGradient id="paint1_linear_3018_123" x1="88.1724" y1="171.342" x2="393.93" y2="347.978" gradientUnits="userSpaceOnUse">
<stop offset="0.0011" stop-color="#C86FD6"/>
<stop offset="1" stop-color="#4C5AD9"/>
</linearGradient>
</defs>
</svg>
