<svg width="493" height="557" viewBox="0 0 493 557" fill="none" xmlns="http://www.w3.org/2000/svg">
<path d="M322.844 198.47C284.776 237.2 247.221 276.513 208.885 314.921C194.604 301.247 180.762 287.03 166.475 273.349C162.284 269.1 155.144 269.402 151.012 273.575C144.534 279.836 138.34 286.433 132.132 292.982C127.751 297.375 127.784 305.42 132.396 309.622C154.138 331.286 175.843 353.006 197.592 374.671C200.825 377.849 204.083 381.947 208.858 382.242C212.793 382.702 216.354 380.41 218.935 377.513C263.834 331.293 308.74 285.095 353.731 238.985C358.573 234.427 365.371 228.359 361.943 220.732C357.363 213.201 349.961 208.081 344.134 201.635C340.863 198.56 337.782 194.263 332.999 194.056C329.097 193.534 325.537 195.738 322.844 198.47ZM234.123 89.3299C259.262 87.9359 284.75 90.9022 308.655 99.3313C348.344 113.116 383.811 140.656 406.822 177.279C437.308 225.228 444.699 288.575 425.228 342.544C410.232 384.679 379.876 420.148 342.511 442.108C290.321 473.047 224.315 476.301 169.267 451.643C127.114 432.78 91.0365 397.934 72.1769 353.995C53.0217 309.608 52.0301 257.238 69.024 211.952C82.7206 174.903 108.267 143.018 140.101 121.456C168.039 102.387 200.811 91.2588 234.123 89.3299Z" fill="#009D65"/>
</svg>
