<svg width="493" height="557" viewBox="0 0 493 557" fill="none" xmlns="http://www.w3.org/2000/svg">
<path d="M246.5 466.502C302.163 466.502 347.287 463.991 347.287 460.893C347.287 457.796 302.163 455.285 246.5 455.285C190.837 455.285 145.713 457.796 145.713 460.893C145.713 463.991 190.837 466.502 246.5 466.502Z" fill="#D3DADD"/>
<path d="M266.232 121.065H226.768V148.937H266.232V121.065Z" fill="#C45151"/>
<path d="M345.324 186.869L313.189 163.961L323.903 148.931C326.921 144.697 332.8 143.712 337.034 146.73L353.837 158.709C358.071 161.727 359.056 167.606 356.038 171.839L345.324 186.869Z" fill="#C45151"/>
<path d="M147.676 186.869L179.811 163.961L169.097 148.931C166.079 144.697 160.2 143.712 155.967 146.73L139.163 158.709C134.929 161.727 133.944 167.606 136.962 171.839L147.676 186.869Z" fill="#C45151"/>
<path d="M246.5 441.469C329.324 441.469 396.466 374.327 396.466 291.503C396.466 208.68 329.324 141.538 246.5 141.538C163.676 141.538 96.5341 208.68 96.5341 291.503C96.5341 374.327 163.676 441.469 246.5 441.469Z" fill="#E54A4A"/>
<path d="M246.5 417.544C316.11 417.544 372.54 361.114 372.54 291.503C372.54 221.893 316.11 165.463 246.5 165.463C176.89 165.463 120.46 221.893 120.46 291.503C120.46 361.114 176.89 417.544 246.5 417.544Z" fill="#C45151"/>
<path d="M246.5 409.651C311.751 409.651 364.648 356.755 364.648 291.504C364.648 226.252 311.751 173.356 246.5 173.356C181.249 173.356 128.352 226.252 128.352 291.504C128.352 356.755 181.249 409.651 246.5 409.651Z" fill="white"/>
<path d="M246.5 179.203C308.522 179.203 358.8 229.482 358.8 291.503H246.5V179.203Z" fill="#FF9B64"/>
<path d="M266.254 126.738H226.746C223.761 126.738 221.341 124.318 221.341 121.333V94.4048C221.341 91.4198 223.761 89 226.746 89H266.254C269.239 89 271.659 91.4198 271.659 94.4048V121.333C271.659 124.318 269.239 126.738 266.254 126.738Z" fill="#E54A4A"/>
<path d="M244.139 309.469C241.819 309.469 239.943 307.759 239.954 305.654C240.146 268.567 243.004 195.219 246.5 195.219C249.996 195.219 252.854 268.567 253.046 305.654C253.057 307.759 251.181 309.469 248.861 309.469H244.139Z" fill="#222D33"/>
<path d="M228.535 289.296C228.535 287.128 230.133 285.373 232.101 285.383C266.774 285.564 314.038 288.235 314.038 291.503C314.038 294.772 266.774 297.443 232.101 297.624C230.133 297.634 228.535 295.879 228.535 293.711V289.296Z" fill="#222D33"/>
<path d="M246.54 187.574C245.752 187.574 245.112 186.934 245.112 186.145V179.272C245.112 178.484 245.752 177.844 246.54 177.844C247.329 177.844 247.969 178.484 247.969 179.272V186.145C247.969 186.934 247.329 187.574 246.54 187.574Z" fill="#222D33"/>
<path d="M194.57 201.477C193.887 201.872 193.014 201.638 192.619 200.955L189.183 195.002C188.788 194.319 189.022 193.446 189.706 193.052C190.389 192.657 191.262 192.891 191.656 193.574L195.093 199.526C195.487 200.209 195.253 201.083 194.57 201.477Z" fill="#222D33"/>
<path d="M156.514 239.503C156.12 240.186 155.246 240.42 154.563 240.026L148.611 236.589C147.928 236.195 147.694 235.322 148.088 234.639C148.483 233.956 149.356 233.721 150.039 234.116L155.992 237.552C156.675 237.947 156.909 238.82 156.514 239.503Z" fill="#222D33"/>
<path d="M142.57 291.463C142.57 292.252 141.931 292.892 141.142 292.892H134.269C133.48 292.892 132.841 292.252 132.841 291.463C132.841 290.675 133.48 290.035 134.269 290.035H141.142C141.931 290.035 142.57 290.675 142.57 291.463Z" fill="#222D33"/>
<path d="M156.474 343.433C156.868 344.116 156.634 344.99 155.951 345.384L149.999 348.82C149.316 349.215 148.442 348.981 148.048 348.298C147.653 347.615 147.887 346.741 148.571 346.347L154.523 342.91C155.206 342.516 156.08 342.75 156.474 343.433Z" fill="#222D33"/>
<path d="M194.5 381.489C195.183 381.883 195.417 382.757 195.023 383.44L191.586 389.392C191.192 390.075 190.318 390.309 189.635 389.915C188.952 389.52 188.718 388.647 189.113 387.964L192.549 382.012C192.943 381.329 193.817 381.095 194.5 381.489Z" fill="#222D33"/>
<path d="M246.46 395.434C247.248 395.434 247.888 396.073 247.888 396.862V403.735C247.888 404.524 247.248 405.163 246.46 405.163C245.671 405.163 245.031 404.524 245.031 403.735V396.862C245.031 396.073 245.671 395.434 246.46 395.434Z" fill="#222D33"/>
<path d="M298.43 381.53C299.113 381.135 299.986 381.369 300.381 382.052L303.817 388.005C304.212 388.688 303.978 389.561 303.294 389.955C302.611 390.35 301.738 390.116 301.344 389.433L297.907 383.48C297.513 382.797 297.747 381.924 298.43 381.53Z" fill="#222D33"/>
<path d="M336.486 343.503C336.88 342.82 337.753 342.586 338.437 342.981L344.389 346.417C345.072 346.812 345.306 347.685 344.912 348.368C344.517 349.051 343.644 349.285 342.961 348.891L337.008 345.454C336.325 345.06 336.091 344.186 336.486 343.503Z" fill="#222D33"/>
<path d="M350.43 291.544C350.43 290.755 351.069 290.116 351.858 290.116H358.731C359.52 290.116 360.159 290.755 360.159 291.544C360.159 292.333 359.52 292.972 358.731 292.972H351.858C351.069 292.972 350.43 292.333 350.43 291.544Z" fill="#222D33"/>
<path d="M336.526 239.574C336.132 238.891 336.366 238.017 337.049 237.623L343.001 234.186C343.684 233.792 344.558 234.026 344.952 234.709C345.346 235.392 345.112 236.266 344.429 236.66L338.477 240.096C337.794 240.491 336.92 240.257 336.526 239.574Z" fill="#222D33"/>
<path d="M298.5 201.517C297.817 201.123 297.583 200.25 297.977 199.567L301.414 193.614C301.808 192.931 302.682 192.697 303.365 193.092C304.048 193.486 304.282 194.359 303.887 195.042L300.451 200.995C300.057 201.678 299.183 201.912 298.5 201.517Z" fill="#222D33"/>
<path d="M246.5 303.242C252.983 303.242 258.238 297.987 258.238 291.504C258.238 285.021 252.983 279.765 246.5 279.765C240.017 279.765 234.762 285.021 234.762 291.504C234.762 297.987 240.017 303.242 246.5 303.242Z" fill="#222D33"/>
</svg>
